<?xml version="1.0" encoding="UTF-8"?>
<svg id="Layer_2" data-name="Layer 2" xmlns="http://www.w3.org/2000/svg" viewBox="0 0 1251.27 1157.41">
  <defs>
    <style>
      .cls-1 {
        fill: #0a5781;
      }

      .cls-2 {
        fill: #e08e2b;
      }

      .cls-3 {
        fill: #e08d2d;
      }
    </style>
  </defs>
  <g id="Layer_1-2" data-name="Layer 1">
    <g>
      <path class="cls-1" d="M1134.6,595.88c-16.35,114.94-69.76,220.79-153.28,301.52-42.91,41.47-92.19,74.13-145.08,101.65-44.02,22.9-88.58,40.91-133.77,60.84l-32.86,14.48c-10.95,4.84-21.3,8.27-32.33,13.22-108.76,49.04-228.27,81.6-348.51,65.78-79.74-10.5-153.16-45.45-208.49-103.68-19.19-20.21-33.67-43.13-45.99-67.95C.97,914.61-6.14,844.7,4.7,770.82c5.83-39.74,15.32-77.02,29.91-114.6,17.98-46.41,38.69-90.58,66.9-131.52l20.3-29.42c-40.09,110.54-68.08,254.16-23.93,366.83,18.68,47.72,49.6,89.03,90.44,119.73,89.77,67.49,200.46,81.32,309.42,66.01,48.32-6.79,94.26-18.31,140.73-32.78,6.7-2.08,13.71-1.9,18.94-7.59-26.16,1.55-49.48,5.31-74.92,4.65-54.96-1.41-107.65-11.43-157.83-33.55-41.35-18.23-78.48-42.09-112.27-72.3-47.67-42.64-87.22-93.08-116.6-149.94-57.34-110.92-71.68-239.3-37.27-359.75,23.02-80.63,67.07-154.79,126.62-213.58C405.17,64.53,578.14,13.96,743.2,47.99c64.8,13.36,124.77,40.47,179.89,76.28l24.5,17.1-134.11,134.55c-51.41-38.04-111.23-55.98-173.85-56.74-63.98-.77-124.6,18.58-176.26,55.92-45.4,31.77-79.67,74.73-102.17,125.31-45.88,103.09-35.32,223.83,30.04,316.19,106.57,150.58,326.76,169.06,458.98,41.1,35.43-34.29,63.24-75.19,78.85-123.54l-283.83-.35c-5.59,0-8.12-4.7-8.1-9.27l.13-160.86c0-2.39,4.75-5.01,7.78-5.01l483.18.03c4.79,0,7.53,4.13,7.91,8.23,4.07,43.26,4.62,85.6-1.55,128.97Z"/>
      <polygon class="cls-2" points="1251.27 0 1251.21 376.35 1215.96 342.15 1123.31 249.72 1080.12 293.19 998.34 375.63 785.67 375.45 935.86 215.29 1012.31 133.72 865.7 .24 1251.27 0"/>
      <path class="cls-3" d="M122.16,499.89c-200.63,509.32,297.23,722.68,772.13,381.99-11.48,8.23-21.32,34.52-30.26,46.39-12.82,17.03-26.95,33.06-42.12,48.03-29.27,28.91-62.41,53.75-97.72,74.81-160.62,95.83-424.53,157.46-592.71,48.45C17.25,1025.52-16.98,874.75,8,747.8c17.67-89.83,59.2-175.07,114.17-247.91Z"/>
    </g>
  </g>
</svg>