<?xml version="1.0" encoding="UTF-8"?>
<svg id="Layer_2" data-name="Layer 2" xmlns="http://www.w3.org/2000/svg" viewBox="0 0 2366.3 688.87">
  <defs>
    <style>
      .cls-1 {
        fill: #0a5781;
      }

      .cls-2 {
        fill: #e08e2b;
      }

      .cls-3 {
        fill: #1e1e1e;
      }

      .cls-4 {
        fill: #e08d2d;
      }
    </style>
  </defs>
  <g id="Layer_1-2" data-name="Layer 1">
    <g>
      <g>
        <path class="cls-3" d="M1949.23,355.17c24.08,10.79,52.44,11.37,77.06.33,29.93-13.42,47.89-40.98,50.08-72.87,1.16-16.72-.98-32.77-8-47.89-21-45.26-75.56-60.49-119.44-40.71-22.04,9.93-37.87,28.42-45,51.49-13.11,42.46,3.04,90.72,45.3,109.65ZM2042.09,277.2s0,.07,0,.11c0-.06,0-.11,0-.17v.05h0ZM2042.09,276.94c0-.28.02-.56.02-.84,0,.17,0,.35,0,.52,0,.11,0,.21-.01.32ZM2042.13,275.33c0-.31,0-.62,0-.93,0,.17.01.33.01.5,0,.14,0,.29,0,.43ZM2042.08,272.6c0-.13,0-.25-.01-.38,0,.06,0,.12,0,.17,0,.07,0,.14,0,.2ZM2042.01,271.19c0-.07,0-.14-.01-.21,0,.04,0,.08.01.12,0,.03,0,.06,0,.09ZM2041.81,268.8c-.01-.13-.03-.26-.04-.39l.02.13c.01.09.01.17.02.26ZM2041.67,267.52c-.05-.38-.1-.77-.16-1.15,0,.05.02.09.02.14.05.33.09.67.14,1.01ZM2041.37,265.53s-.02-.09-.02-.14c0,.03.01.06.02.09,0,.01,0,.03,0,.04ZM2041.04,263.69c-.03-.18-.07-.35-.11-.53.02.11.05.21.07.32h0c.01.08.02.15.04.22ZM2040.28,260.3s0,0,0,0c-.12-.47-.26-.94-.39-1.42,0,.03.02.07.03.1.13.43.25.87.36,1.31ZM2039.54,257.71c.02.07.04.13.06.2-.09-.28-.17-.56-.26-.83.01.03.02.07.03.1.06.17.11.35.17.53ZM2039,256.09c-.07-.21-.15-.42-.22-.63.02.06.05.12.07.18.05.15.1.3.15.45ZM1937.06,257.16c.21-.73.43-1.44.67-2.15.24-.72.49-1.43.75-2.14.39-1.06.81-2.1,1.27-3.12h0c.3-.7.61-1.37.95-2.04h0c.49-1.02,1.01-2.01,1.57-2.98.37-.65.75-1.3,1.14-1.94,1.38-2.22,2.91-4.34,4.61-6.33h0c6.76-8,15.97-14.03,27.38-16.7,10.9-2.55,21.43-1.84,30.92,1.78,0,0,0,.01,0,.01.71.27,1.41.56,2.11.86,0,0,0,.01,0,.01.7.3,1.39.62,2.07.95,1.16.57,2.3,1.18,3.42,1.85.42.24.83.49,1.24.74.26.16.51.32.76.49.52.34,1.04.69,1.55,1.04,1.6,1.12,3.15,2.34,4.65,3.65,1.21,1.06,2.37,2.16,3.48,3.3.74.76,1.45,1.54,2.15,2.32.35.4.69.8,1.02,1.2,1,1.21,1.95,2.45,2.85,3.72.56.81,1.11,1.62,1.63,2.44-.52-.83-1.06-1.64-1.63-2.44,1.19,1.69,2.28,3.43,3.28,5.23.5.89.98,1.8,1.42,2.72.44.91.85,1.84,1.25,2.76.05.11.1.22.14.33.37.89.72,1.79,1.04,2.69.09.25.18.5.26.75.1.28.19.55.28.83,0,0,0,0,0,0,.1.32.2.64.3.96.01.04.03.08.04.13.08.23.15.47.21.71.15.53.3,1.06.44,1.6.22.86.41,1.73.6,2.6.06.27.11.54.17.81.07.35.13.71.19,1.07.05.29.1.58.15.88.02.12.04.24.06.37.08.56.16,1.12.23,1.69,0,.08.02.16.03.24.04.32.07.64.1.97.06.55.11,1.11.14,1.66.02.24.04.47.05.71,0,.03,0,.06,0,.09,0,.05,0,.09,0,.14,0,.11.01.23.02.34.02.3.02.6.03.9.02.45.03.9.03,1.35,0,.41.01.82,0,1.23,0,.13,0,.26,0,.39,0,.4-.02.8-.03,1.19,0,0,0,.01,0,.02h0c0,.12,0,.24,0,.35,0,.08,0,.16-.01.24-.03.61-.06,1.22-.11,1.84.04-.58.08-1.17.11-1.75,0,.2-.02.4-.03.6-.02.38-.05.77-.08,1.15,0,.09,0,.17-.02.25-.07.94-.17,1.88-.3,2.82-.21,1.64-.48,3.28-.83,4.92-3.11,14.75-11.9,27.64-24.28,35.55-.89.56-1.79,1.1-2.71,1.62-1.84,1.03-3.75,1.95-5.73,2.75-.66.27-1.32.52-1.99.77-.68.24-1.36.47-2.04.69-.34.11-.69.21-1.04.31-.69.2-1.39.39-2.09.57-2.12.53-4.29.93-6.52,1.19-23.08,2.75-43.86-10.16-53.69-30.41-1.08-2.23-2.01-4.51-2.8-6.82-.28-.82-.54-1.65-.79-2.49-.07-.25-.14-.49-.2-.74-.56-1.98-1.01-3.99-1.35-6-1.58-9.19-1.03-18.59,1.48-27.31ZM2037.72,252.72c-.04-.1-.09-.21-.13-.31.04.1.09.21.13.31Z"/>
        <path class="cls-3" d="M1023.96,269.29l-75.5.06.12,29.7,41.59.22c-4.95,25.91-29.16,35.23-52.37,30.94-21.77-4.02-37.57-19.9-41.12-41.92-3.63-22.53.99-53.91,24.14-64.95,15.87-7.57,34.42-7.24,49.93,1.09,6.95,3.73,10.55,10.33,14.08,17.52l36.74.08c-3.18-25.49-24.04-44.85-47-52.09-34.63-10.91-76.94-2.77-98.5,28.85-16.29,23.88-19.76,57.23-12.62,84.44,6.11,23.3,21.17,42.35,43.48,52.06,38.31,16.7,87.58,9.2,108.52-31.66,9.33-18.22,9.29-33.64,8.51-54.34Z"/>
        <polygon class="cls-3" points="1555.22 289.12 1627.92 289.16 1627.92 360.27 1662.64 360.33 1662.74 188.69 1628.04 188.75 1627.9 256.98 1555.26 256.92 1555.04 188.59 1520.55 188.72 1520.58 360.26 1555.03 360.28 1555.22 289.12"/>
        <path class="cls-3" d="M1844.2,266.42l-41.04-12.69c-8.62-2.67-13.47-9.36-13.31-18.11.13-7.35,2.89-13.99,10.2-17.08,9.27-3.92,20.58-3.89,29.71.78,6.77,3.45,9.53,10.22,10.76,17.77l36.3.03c-1.24-19.19-10.04-35.38-26.54-43.84-20.63-10.56-44.93-11.23-66.01-2.29-20.69,8.77-32.15,27.51-31.45,49.63,1.44,45.61,50.32,42.63,81.33,57.37,5.1,2.42,8.42,7.84,8.95,12.25,1.62,13.49-10.8,21.71-24.28,22.19-18.25.65-31.7-6.11-36.01-24.71l-35.56-.07c1.8,21.43,12.85,39.25,33.01,48.27,31.26,13.97,74.65,9.87,92.77-22.83,4.51-8.14,5.68-17.14,5.75-26.46.15-22.21-15.02-34.16-34.58-40.21Z"/>
        <polygon class="cls-3" points="1308.88 360.36 1308.84 328.82 1230.36 328.91 1230.6 289.22 1299.74 289.11 1299.77 258.02 1230.28 258.14 1230.15 220.48 1308.85 220.16 1308.84 188.64 1195.17 188.72 1195.24 360.38 1308.88 360.36"/>
        <path class="cls-3" d="M1458.02,303.23c-3.93,9.23-9.33,16.41-18.73,21.79-22.32,12.76-51.57,5.7-63.8-17.3-11.25-21.16-10.76-47.46.74-68.35,8.3-15.08,24.97-21.69,41.48-21.05,18.87.17,34.67,10.69,41.08,28.37l36.24-.05c-3.41-23.81-18.34-42.62-39.65-52.61-30.68-14.59-71.98-10.63-97.03,13.2-16.89,16.06-25.81,38.02-26.19,61.33-.19,11.11.3,21.37,3.02,31.99,6.43,25.05,23.27,46.08,47.27,56.02,45.3,18.76,102.37-2.12,113-53.32l-37.43-.02Z"/>
        <polygon class="cls-3" points="2106.15 360.25 2140.83 360.22 2140.99 295.33 2207.15 295.03 2207.32 263.77 2141.5 263.74 2141.44 220.51 2216.94 220.08 2216.95 188.64 2106.18 188.66 2106.15 360.25"/>
        <polygon class="cls-3" points="2366.28 188.23 2234.24 188.75 2234.12 220.32 2282.51 220.25 2282.42 360.42 2317.38 360.31 2317.68 220.66 2366.3 219.95 2366.28 188.23"/>
        <polygon class="cls-3" points="1087.11 295.59 1087.1 334.59 1087.26 360.24 1122.24 360.21 1122.36 220.56 1170.01 220.11 1170.02 188.66 1038.8 188.68 1038.75 220.25 1087.18 220.24 1087.11 295.59"/>
        <path class="cls-3" d="M1725.01,437.68l-13.22-.04c-4.34.39-5.53,3.17-5.47,6.89.2,12.15.33,23.18-.49,36.05l-29.4-39.7c-1.38-1.86-4.26-3.31-6.36-3.3l-12.55.05c-2.14.01-4.69,2.46-4.67,4.94l.38,77.08c0,1.55,2.05,4.47,3.6,4.49l15.98.16c1.75-1.08,3.5-3.42,3.53-5.51l.52-36.91,27.73,37.9c4.7,6.42,9.21,4.7,19.13,4.63,3.7-.02,6.01-2.26,6.01-5.76v-76.07c0-2.39-2.58-4.9-4.72-4.9Z"/>
        <path class="cls-3" d="M1586.1,436.03c-27.32-1.39-47.58,18.88-47.17,45.65.35,23.06,16.36,42.44,39.87,44.22,19.72,1.48,37.71-7.58,45.88-26.87,4.51-10.67,4.32-23.6.73-34.39-5.76-17.23-22.04-27.73-39.31-28.61ZM1603.75,483.15c-.05.44-.11.87-.19,1.31-.06.35-.12.69-.2,1.03-.1.46-.22.91-.35,1.37-.06.22-.13.44-.2.65-.06.18-.12.37-.19.56-.24.68-.52,1.36-.83,2.01-.12.27-.25.53-.39.79-.4.78-.85,1.54-1.35,2.28-.2.3-.42.58-.63.87-.22.29-.44.57-.67.84-1.38,1.67-3.05,3.17-4.97,4.39-.42.27-.86.53-1.31.77-.74.4-1.51.76-2.32,1.08-.42.17-.86.33-1.3.47-.46.15-.93.28-1.41.4-.32.09-.65.16-.98.23-.54.11-1.08.19-1.62.25-2.89.29-5.74-.22-8.32-1.26-.57-.23-1.13-.48-1.67-.76-.32-.16-.63-.33-.94-.51-.23-.13-.46-.27-.68-.41-.15-.1-.3-.19-.44-.29.37.24.74.48,1.12.7-.42-.25-.84-.51-1.24-.78-.03-.02-.06-.04-.09-.06h0c-.43-.29-.85-.6-1.26-.92.38.31.78.6,1.19.88-.2-.14-.39-.27-.57-.41h-.01c-.21-.16-.41-.31-.61-.47-.53-.43-1.04-.87-1.52-1.35-.24-.23-.47-.47-.7-.71-.22-.24-.43-.48-.64-.73-.43-.52-.84-1.06-1.23-1.61-.2-.27-.39-.55-.57-.83-.38-.57-.73-1.15-1.05-1.73-.16-.29-.32-.58-.46-.88-.15-.29-.3-.59-.43-.9-.01-.02-.02-.04-.03-.06-.13-.28-.25-.56-.36-.85-.25-.61-.47-1.23-.66-1.86-.1-.31-.19-.63-.26-.95-.09-.31-.17-.63-.22-.95-.34-1.63-.47-3.29-.37-4.95.02-.35.05-.71.09-1.07.09-.71.22-1.42.39-2.13.23-.95.51-1.87.83-2.76.16-.44.33-.87.51-1.29.35-.85.75-1.66,1.19-2.42.87-1.55,1.9-2.94,3.08-4.14.35-.36.71-.71,1.09-1.03.23-.22.47-.43.72-.62.07-.06.14-.12.22-.17.2-.17.42-.32.63-.48.22-.15.44-.31.67-.44.07-.06.14-.1.21-.14.19-.13.39-.25.59-.36.31-.19.62-.36.94-.52.27-.14.55-.28.84-.41.15-.07.3-.14.45-.2.36-.15.72-.3,1.09-.43,6.87-2.48,14.35-1.37,20.25,3.65,1.51,1.28,2.8,2.75,3.85,4.36.17.26.34.53.5.8.01.03.03.06.04.08.18.31.36.62.52.94.21.4.41.82.58,1.23.1.21.19.42.27.64.17.4.32.81.45,1.22.12.36.22.72.32,1.08.07.25.13.5.19.76.05.19.09.39.12.58.08.33.13.66.18.99.05.29.09.59.12.89.03.29.06.59.07.88.02.18.03.37.04.56.05,1.09,0,2.2-.11,3.3Z"/>
        <path class="cls-3" d="M1159.08,436.2c-14.33-1.08-26.46,3.17-35.84,12.39-9.56,9.39-13.16,21.3-12.69,35.04.41,11.87,4.46,22.05,12.92,30.31,8.59,8.39,19.01,12.52,31.39,11.88,7.15-.37,14.27-.78,21.2-4.9,9.71-5.78,17.95-14.6,21.03-25.61,2.35-8.39,2.49-18.36.43-26.94-4.33-17.98-20.69-30.82-38.44-32.17ZM1174.64,483.69c-.08.52-.17,1.03-.27,1.53-.04.21-.09.42-.14.63-.05.22-.1.42-.16.63-.05.21-.11.42-.17.63-.12.41-.25.81-.39,1.21-.13.39-.28.79-.44,1.17-.14.33-.29.67-.44,1-.19.42-.4.83-.62,1.23-.53.95-1.11,1.85-1.76,2.7-.32.42-.66.83-1.02,1.22-.18.2-.36.39-.55.58-.35.37-.71.71-1.08,1.03-.19.17-.38.33-.57.49-.2.16-.39.31-.59.47-.2.15-.4.3-.61.44-.2.14-.42.29-.63.43-.21.13-.43.27-.64.4-.22.13-.45.26-.67.38-.22.12-.45.24-.68.36-.23.12-.46.23-.7.34-.24.11-.47.21-.72.32-.69.29-1.4.55-2.14.78-.04.02-.07.03-.11.03-.26.08-.52.16-.78.23-.27.07-.53.14-.8.2-7.95,1.86-16.48-3.23-20.12-9.39-.86-1.45-1.55-2.91-2.09-4.39-.12-.33-.24-.67-.34-1.01-.11-.33-.2-.66-.29-1-.04-.13-.07-.25-.1-.38,0-.01,0-.03,0-.04-.05-.18-.09-.35-.12-.52-.12-.51-.21-1.02-.28-1.53-.04-.2-.06-.41-.08-.61,0-.03,0-.06-.01-.09-.02-.19-.04-.38-.05-.57-.03-.24-.04-.48-.05-.73,0-.14,0-.27,0-.41,0-.22-.02-.43,0-.65,0-.49.02-.98.06-1.46.01-.27.04-.54.08-.8.06-.53.14-1.06.26-1.59.04-.27.1-.53.18-.8.12-.53.27-1.06.45-1.58.05-.18.11-.35.18-.53.21-.61.46-1.22.73-1.83.24-.52.49-1.04.78-1.56.2-.36.41-.72.63-1.08.02-.04.04-.08.08-.13.22-.37.45-.73.7-1.09,5.31-7.77,15.47-10.28,24.08-6.51,7.89,3.46,13.49,11.99,12.03,21.85Z"/>
        <path class="cls-3" d="M1801.58,472.2l-18.09-5.09c-1.46-.41-3.42-3.51-3-4.88.35-1.17,2.3-3.01,3.44-3.46,10.16-3.99,10.74,9.09,15,9.44,5.73.47,13.64.73,18.75-.65,4.08-2.2,2.42-8.63,1.2-12.15-4.6-13.21-17.47-19.24-31.15-19.35-12.5-.1-25.28,4.64-30.06,17.24-2.37,6.23-2.05,15.32.09,21.62,2.71,7.95,10.18,12.56,17.58,14.73l18.62,5.47c1.06.31,2.98,2.06,3.27,3.06.3.99-1.31,3.03-2.33,3.77-4.77,3.45-12.48,1.83-15.57-2.97-4.43-6.88-.79-7.82-23.27-6.58-2.31.13-3.06,5.12-2.82,7.07,2.1,17.25,17.11,26.65,33.54,26.61,13.81-.03,26.31-4.18,32.62-18.48,2.51-5.68,2.61-14.27.39-20.27-2.88-7.79-10.57-12.97-18.21-15.13Z"/>
        <path class="cls-3" d="M1072.66,473.92l-20.12-5.83c-1.88-.54-5.2-3.32-4.58-5.27.87-2.71,4.83-4.29,7.27-4.21,8.32.26,7.25,10.18,11.6,10.22l17.09.15c3.95.03,7.99-11.77-4.45-24.07-6.68-6.6-15.29-8.07-24.78-8.05-12,.02-24.07,4.54-29.15,16.38-2.68,6.26-2.41,14.77-.36,21.3,2.45,7.85,9.3,13.19,16.96,15.43l19.3,5.66c.97.28,2.7,1.8,3.19,2.61.48.82-.67,3.26-1.58,3.88-4.68,3.2-13.03,2.87-15.98-2.92-.98-1.91-3.05-6.28-5.11-6.3l-15.25-.17c-4.1-.05-5.98,4.12-5.4,7.79,2.77,17.61,18.57,26.37,35.47,25.93,15.72-.41,30.19-8.2,32.37-25.47,1.54-12.13-4.89-23.71-16.49-27.06Z"/>
        <path class="cls-3" d="M2122.01,488.51l-15.11.19-6.11,8.49c-5.25,7.3-16.63,7.25-23.31,1.54-9.17-7.83-9.79-22.09-2.65-32.12,5.71-8,18.91-9.01,25.81-1.88,2.25,2.34,3.86,5.46,5.89,8.24,6.43.02,12.11.07,18.59-.37,7.46-.51.65-34.96-34.24-36.24-26.31-.97-46.56,18.89-45.32,45.33.55,11.8,3.59,22.73,11.64,31.54,8.22,9.01,18.49,12.76,30.59,12.83,14.07.08,26.4-4.98,34.65-16.83,3.14-4.53,9.04-14.52,4.32-19.11-.83-.81-3.5-1.63-4.75-1.61Z"/>
        <path class="cls-3" d="M1366.83,437.6l-12.72.03c-3.34.01-4.72,3.32-4.72,5.91l-.03,48.18c-.01,3.25-2.29,7.4-4.3,8.87-2.49,1.82-6.05,2.39-9.12,2.12-6.67-.56-10.14-5.31-10.14-11.71l-.04-47.46c0-2.92-1.8-5.86-4.96-5.89l-13.19-.1c-1.69-.02-5.31,2.26-5.3,4.17l.2,54.4c.08,19.76,16.24,30.22,34.11,30.21,20.13-.02,35.68-11.94,35.71-32.88l.07-49.9c0-3.12-2.42-5.96-5.57-5.95Z"/>
        <path class="cls-3" d="M1461.89,437.71l-58.2-.12c-2.26,0-6.19,1.78-6.22,3.94l-.17,13.13c-.05,3.61,2.99,5.72,6.35,5.74l17.21.12.04,59.18c0,1.76,3.1,4.63,4.77,4.61l15.55-.25c1.42-.02,3.03-3.94,3.04-5.56l.12-57.83,16.57-.19c2.75-.03,5.83-1.71,5.87-4.65l.15-13.44c.02-2.44-2.62-4.67-5.08-4.68Z"/>
        <path class="cls-3" d="M1277.8,502.23l-31.21-.12.08-59.6c0-1.7-2.19-4.61-3.65-4.64l-14.37-.32c-3.42-.07-5.67,2.74-5.67,6.03l.06,75.08c0,3.29,2.41,5.64,5.67,5.64h47.14c3.41,0,5.95-2.11,5.97-5.58l.07-11.38c0-1.7-2.16-5.1-4.09-5.11Z"/>
        <path class="cls-3" d="M2027.85,502.17h-31.39l.18-56.64c.01-2.57-.58-7.66-3.8-7.72l-14.16-.23c-3.41-.06-5.37,2.94-5.37,6.02l.17,74.97c0,3.68,2.61,5.85,6.26,5.84l46.1-.16c3.52-.01,5.81-1.98,5.82-5.54l.04-12.12c.01-1.44-2.46-4.42-3.85-4.42Z"/>
        <path class="cls-3" d="M1945.94,502.19l-30.11.03-.09-58.62c0-3.82-2.17-6.05-5.85-6.04h-12.39c-2.23.01-4.88,2.34-4.88,5.07v75.06c0,2.86,1.92,6.62,5.11,6.61l49.1-.1c1.7-.01,4.04-2.79,4.04-4.25l-.02-14.18c0-1.96-3.26-3.58-4.91-3.58Z"/>
        <path class="cls-3" d="M1509.14,437.59l-12.66.18c-2.03.03-4.47,1.98-5.13,4.03l-.06,76.84c0,2.49,1.98,5.58,4.27,5.6l14.19.09c1.65.02,4.43-2.98,4.43-4.83v-78.46c-1.08-1.46-3.63-3.47-5.04-3.45Z"/>
      </g>
      <g>
        <path class="cls-1" d="M675.3,354.66c-9.73,68.41-41.52,131.41-91.23,179.46-25.54,24.68-54.87,44.12-86.35,60.5-26.2,13.63-52.72,24.35-79.62,36.21l-19.56,8.62c-6.52,2.88-12.68,4.92-19.24,7.87-64.73,29.19-135.86,48.57-207.43,39.15-47.46-6.25-91.16-27.05-124.09-61.71-11.42-12.03-20.04-25.67-27.37-40.44C.58,544.36-3.65,502.75,2.8,458.78c3.47-23.65,9.12-45.84,17.8-68.21,10.7-27.62,23.03-53.91,39.82-78.28l12.08-17.51c-23.86,65.79-40.52,151.27-14.24,218.33,11.12,28.4,29.52,52.99,53.83,71.26,53.43,40.17,119.31,48.4,184.16,39.29,28.76-4.04,56.1-10.9,83.76-19.51,3.99-1.24,8.16-1.13,11.27-4.52-15.57.92-29.45,3.16-44.59,2.77-32.71-.84-64.07-6.8-93.94-19.97-24.61-10.85-46.71-25.05-66.82-43.03-28.37-25.38-51.91-55.4-69.4-89.24-34.13-66.02-42.66-142.43-22.18-214.12,13.7-47.99,39.92-92.13,75.36-127.12C241.15,38.41,344.1,8.31,442.34,28.56c38.57,7.95,74.26,24.09,107.07,45.4l14.58,10.18-79.82,80.08c-30.6-22.64-66.2-33.32-103.47-33.77-38.08-.46-74.16,11.06-104.91,33.28-27.02,18.91-47.42,44.48-60.81,74.58-27.31,61.36-21.02,133.22,17.88,188.19,63.43,89.62,194.48,100.62,273.18,24.46,21.09-20.41,37.64-44.75,46.93-73.53l-168.93-.21c-3.33,0-4.83-2.8-4.82-5.52l.08-95.74c0-1.42,2.83-2.98,4.63-2.98l287.58.02c2.85,0,4.48,2.46,4.71,4.9,2.42,25.75,2.75,50.95-.92,76.76Z"/>
        <polygon class="cls-2" points="744.74 0 744.7 224 723.72 203.64 668.58 148.63 642.87 174.5 594.2 223.57 467.62 223.46 557.01 128.14 602.51 79.59 515.25 .14 744.74 0"/>
        <path class="cls-4" d="M72.71,297.53c-119.41,303.14,176.91,430.13,459.56,227.36-6.83,4.9-12.69,20.54-18.01,27.61-7.63,10.14-16.04,19.67-25.07,28.59-17.42,17.21-37.15,31.99-58.16,44.52-95.6,57.04-252.67,93.72-352.77,28.84C10.26,610.37-10.11,520.64,4.76,445.08c10.52-53.47,35.23-104.2,67.95-147.55Z"/>
      </g>
    </g>
  </g>
</svg>