<svg xmlns="http://www.w3.org/2000/svg" xmlns:xlink="http://www.w3.org/1999/xlink" width="2048" zoomAndPan="magnify" viewBox="0 0 1536 446.999989" height="596" preserveAspectRatio="xMidYMid meet" version="1.0"><path fill="#ffffff" d="M 1265.101562 230.464844 C 1280.726562 237.46875 1299.128906 237.84375 1315.105469 230.679688 C 1334.523438 221.972656 1346.179688 204.089844 1347.601562 183.394531 C 1348.351562 172.546875 1346.964844 162.132812 1342.410156 152.320312 C 1328.78125 122.953125 1293.378906 113.070312 1264.90625 125.902344 C 1250.605469 132.347656 1240.332031 144.34375 1235.707031 159.316406 C 1227.199219 186.867188 1237.679688 218.183594 1265.101562 230.464844 Z M 1325.355469 179.871094 C 1325.355469 179.871094 1325.355469 179.917969 1325.355469 179.941406 C 1325.355469 179.90625 1325.355469 179.871094 1325.355469 179.832031 Z M 1325.355469 179.703125 C 1325.355469 179.523438 1325.371094 179.339844 1325.371094 179.15625 C 1325.371094 179.269531 1325.371094 179.386719 1325.371094 179.496094 C 1325.371094 179.566406 1325.371094 179.632812 1325.363281 179.703125 Z M 1325.382812 178.660156 C 1325.382812 178.457031 1325.382812 178.257812 1325.382812 178.054688 C 1325.382812 178.164062 1325.390625 178.269531 1325.390625 178.378906 C 1325.390625 178.46875 1325.390625 178.566406 1325.390625 178.660156 Z M 1325.351562 176.886719 C 1325.351562 176.800781 1325.351562 176.726562 1325.34375 176.640625 C 1325.34375 176.679688 1325.34375 176.71875 1325.34375 176.75 C 1325.34375 176.796875 1325.34375 176.839844 1325.34375 176.878906 Z M 1325.304688 175.972656 C 1325.304688 175.925781 1325.304688 175.882812 1325.296875 175.835938 C 1325.296875 175.863281 1325.296875 175.886719 1325.304688 175.914062 C 1325.304688 175.933594 1325.304688 175.953125 1325.304688 175.972656 Z M 1325.175781 174.421875 C 1325.167969 174.335938 1325.15625 174.253906 1325.148438 174.167969 L 1325.160156 174.253906 C 1325.167969 174.3125 1325.167969 174.363281 1325.175781 174.421875 Z M 1325.082031 173.589844 C 1325.050781 173.34375 1325.019531 173.089844 1324.980469 172.84375 C 1324.980469 172.875 1324.992188 172.902344 1324.992188 172.933594 C 1325.023438 173.148438 1325.050781 173.371094 1325.082031 173.589844 Z M 1324.890625 172.300781 C 1324.890625 172.300781 1324.875 172.242188 1324.875 172.207031 C 1324.875 172.226562 1324.882812 172.246094 1324.890625 172.265625 C 1324.890625 172.273438 1324.890625 172.285156 1324.890625 172.292969 Z M 1324.675781 171.105469 C 1324.65625 170.988281 1324.628906 170.878906 1324.605469 170.761719 C 1324.617188 170.832031 1324.636719 170.898438 1324.648438 170.96875 C 1324.65625 171.019531 1324.660156 171.066406 1324.675781 171.113281 Z M 1324.183594 168.90625 C 1324.105469 168.601562 1324.011719 168.296875 1323.929688 167.984375 C 1323.929688 168.003906 1323.941406 168.03125 1323.949219 168.050781 C 1324.03125 168.328125 1324.109375 168.613281 1324.183594 168.898438 Z M 1323.703125 167.226562 C 1323.714844 167.269531 1323.726562 167.308594 1323.742188 167.355469 C 1323.683594 167.171875 1323.628906 166.992188 1323.570312 166.816406 C 1323.578125 166.835938 1323.585938 166.863281 1323.589844 166.882812 C 1323.628906 166.992188 1323.664062 167.109375 1323.703125 167.226562 Z M 1323.351562 166.175781 C 1323.304688 166.039062 1323.253906 165.902344 1323.207031 165.765625 C 1323.222656 165.804688 1323.242188 165.84375 1323.253906 165.882812 C 1323.285156 165.980469 1323.320312 166.078125 1323.351562 166.175781 Z M 1257.203125 166.867188 C 1257.339844 166.394531 1257.484375 165.933594 1257.636719 165.472656 C 1257.792969 165.007812 1257.957031 164.546875 1258.125 164.085938 C 1258.378906 163.398438 1258.652344 162.722656 1258.949219 162.058594 C 1259.144531 161.605469 1259.34375 161.171875 1259.566406 160.734375 C 1259.882812 160.074219 1260.222656 159.433594 1260.585938 158.800781 C 1260.824219 158.378906 1261.070312 157.960938 1261.324219 157.542969 C 1262.21875 156.101562 1263.210938 154.726562 1264.316406 153.4375 C 1268.703125 148.246094 1274.679688 144.332031 1282.082031 142.601562 C 1289.15625 140.945312 1295.988281 141.40625 1302.144531 143.753906 C 1302.144531 143.753906 1302.144531 143.761719 1302.144531 143.761719 C 1302.605469 143.9375 1303.058594 144.125 1303.515625 144.320312 C 1303.515625 144.320312 1303.515625 144.324219 1303.515625 144.324219 C 1303.96875 144.519531 1304.417969 144.726562 1304.859375 144.941406 C 1305.609375 145.3125 1306.351562 145.707031 1307.078125 146.144531 C 1307.351562 146.296875 1307.617188 146.460938 1307.882812 146.621094 C 1308.050781 146.726562 1308.210938 146.832031 1308.375 146.941406 C 1308.710938 147.160156 1309.050781 147.386719 1309.378906 147.617188 C 1310.417969 148.34375 1311.425781 149.132812 1312.398438 149.984375 C 1313.183594 150.671875 1313.9375 151.386719 1314.65625 152.125 C 1315.136719 152.617188 1315.597656 153.125 1316.050781 153.632812 C 1316.277344 153.890625 1316.5 154.148438 1316.714844 154.410156 C 1317.363281 155.195312 1317.976562 156 1318.5625 156.824219 C 1318.925781 157.347656 1319.28125 157.875 1319.621094 158.40625 C 1319.28125 157.867188 1318.933594 157.34375 1318.5625 156.824219 C 1319.335938 157.921875 1320.042969 159.050781 1320.691406 160.21875 C 1321.015625 160.792969 1321.328125 161.386719 1321.613281 161.980469 C 1321.898438 162.574219 1322.164062 163.175781 1322.421875 163.773438 C 1322.457031 163.84375 1322.488281 163.914062 1322.515625 163.988281 C 1322.753906 164.566406 1322.980469 165.148438 1323.1875 165.734375 C 1323.246094 165.894531 1323.304688 166.058594 1323.359375 166.21875 C 1323.421875 166.402344 1323.480469 166.578125 1323.539062 166.757812 C 1323.605469 166.964844 1323.667969 167.171875 1323.734375 167.378906 C 1323.742188 167.40625 1323.753906 167.433594 1323.761719 167.464844 C 1323.8125 167.613281 1323.859375 167.769531 1323.894531 167.925781 C 1323.992188 168.269531 1324.089844 168.613281 1324.183594 168.964844 C 1324.324219 169.523438 1324.449219 170.085938 1324.570312 170.652344 C 1324.609375 170.828125 1324.644531 171 1324.679688 171.175781 C 1324.726562 171.402344 1324.765625 171.636719 1324.804688 171.871094 C 1324.835938 172.058594 1324.871094 172.246094 1324.902344 172.441406 C 1324.914062 172.519531 1324.929688 172.597656 1324.941406 172.683594 C 1324.992188 173.046875 1325.046875 173.410156 1325.089844 173.777344 C 1325.089844 173.832031 1325.101562 173.882812 1325.109375 173.933594 C 1325.136719 174.140625 1325.15625 174.351562 1325.175781 174.5625 C 1325.214844 174.921875 1325.246094 175.285156 1325.265625 175.640625 C 1325.277344 175.796875 1325.292969 175.945312 1325.296875 176.101562 C 1325.296875 176.121094 1325.296875 176.140625 1325.296875 176.160156 C 1325.296875 176.191406 1325.296875 176.21875 1325.296875 176.25 C 1325.296875 176.324219 1325.304688 176.402344 1325.3125 176.472656 C 1325.324219 176.667969 1325.324219 176.859375 1325.332031 177.054688 C 1325.34375 177.347656 1325.351562 177.640625 1325.351562 177.933594 C 1325.351562 178.199219 1325.355469 178.464844 1325.351562 178.730469 C 1325.351562 178.8125 1325.351562 178.898438 1325.351562 178.984375 C 1325.351562 179.242188 1325.335938 179.503906 1325.332031 179.753906 C 1325.332031 179.753906 1325.332031 179.761719 1325.332031 179.769531 C 1325.332031 179.847656 1325.332031 179.925781 1325.332031 179.996094 C 1325.332031 180.046875 1325.332031 180.097656 1325.324219 180.152344 C 1325.304688 180.546875 1325.285156 180.941406 1325.253906 181.34375 C 1325.277344 180.96875 1325.304688 180.585938 1325.324219 180.210938 C 1325.324219 180.339844 1325.3125 180.46875 1325.304688 180.597656 C 1325.292969 180.84375 1325.273438 181.097656 1325.253906 181.34375 C 1325.253906 181.402344 1325.253906 181.457031 1325.238281 181.507812 C 1325.195312 182.117188 1325.128906 182.726562 1325.046875 183.335938 C 1324.910156 184.402344 1324.734375 185.464844 1324.507812 186.53125 C 1322.488281 196.101562 1316.785156 204.464844 1308.75 209.597656 C 1308.175781 209.960938 1307.589844 210.3125 1306.992188 210.648438 C 1305.800781 211.316406 1304.558594 211.914062 1303.273438 212.433594 C 1302.847656 212.609375 1302.417969 212.769531 1301.984375 212.933594 C 1301.542969 213.089844 1301.101562 213.238281 1300.660156 213.378906 C 1300.4375 213.453125 1300.210938 213.515625 1299.984375 213.582031 C 1299.539062 213.710938 1299.082031 213.835938 1298.628906 213.953125 C 1297.253906 214.296875 1295.84375 214.554688 1294.398438 214.722656 C 1279.421875 216.507812 1265.9375 208.132812 1259.558594 194.992188 C 1258.859375 193.542969 1258.253906 192.066406 1257.742188 190.566406 C 1257.5625 190.035156 1257.390625 189.496094 1257.230469 188.949219 C 1257.183594 188.789062 1257.140625 188.632812 1257.101562 188.46875 C 1256.738281 187.183594 1256.445312 185.878906 1256.222656 184.578125 C 1255.199219 178.613281 1255.554688 172.511719 1257.183594 166.855469 Z M 1322.519531 163.988281 C 1322.496094 163.921875 1322.460938 163.851562 1322.4375 163.785156 C 1322.460938 163.851562 1322.496094 163.921875 1322.519531 163.988281 Z M 1322.519531 163.988281 " fill-opacity="1" fill-rule="nonzero"/><path fill="#ffffff" d="M 664.703125 174.738281 L 615.710938 174.777344 L 615.789062 194.050781 L 642.777344 194.191406 C 639.566406 211.003906 623.855469 217.054688 608.796875 214.269531 C 594.667969 211.660156 584.417969 201.355469 582.113281 187.066406 C 579.757812 172.449219 582.753906 152.085938 597.777344 144.921875 C 608.074219 140.011719 620.113281 140.226562 630.175781 145.628906 C 634.6875 148.050781 637.023438 152.332031 639.3125 157 L 663.152344 157.050781 C 661.089844 140.511719 647.554688 127.949219 632.65625 123.25 C 610.183594 116.171875 582.730469 121.453125 568.738281 141.96875 C 558.167969 157.464844 555.917969 179.105469 560.550781 196.761719 C 564.515625 211.882812 574.285156 224.242188 588.765625 230.542969 C 613.621094 241.378906 645.59375 236.511719 659.179688 210 C 665.234375 198.175781 665.210938 188.171875 664.703125 174.738281 Z M 664.703125 174.738281 " fill-opacity="1" fill-rule="nonzero"/><path fill="#ffffff" d="M 1009.433594 187.605469 L 1056.605469 187.632812 L 1056.605469 233.773438 L 1079.136719 233.8125 L 1079.199219 122.4375 L 1056.683594 122.476562 L 1056.59375 166.75 L 1009.457031 166.710938 L 1009.316406 122.375 L 986.933594 122.457031 L 986.953125 233.769531 L 1009.308594 233.78125 Z M 1009.433594 187.605469 " fill-opacity="1" fill-rule="nonzero"/><path fill="#ffffff" d="M 1196.949219 172.875 L 1170.316406 164.640625 C 1164.722656 162.910156 1161.578125 158.570312 1161.679688 152.890625 C 1161.765625 148.121094 1163.554688 143.8125 1168.300781 141.808594 C 1174.3125 139.265625 1181.652344 139.285156 1187.578125 142.3125 C 1191.96875 144.554688 1193.761719 148.945312 1194.558594 153.84375 L 1218.113281 153.863281 C 1217.308594 141.414062 1211.597656 130.90625 1200.894531 125.417969 C 1187.507812 118.566406 1171.738281 118.128906 1158.058594 123.929688 C 1144.632812 129.621094 1137.199219 141.78125 1137.652344 156.136719 C 1138.585938 185.730469 1170.304688 183.796875 1190.425781 193.363281 C 1193.734375 194.933594 1195.890625 198.449219 1196.234375 201.3125 C 1197.285156 210.066406 1189.226562 215.398438 1180.480469 215.710938 C 1168.636719 216.132812 1159.910156 211.746094 1157.113281 199.675781 L 1134.039062 199.628906 C 1135.207031 213.535156 1142.375 225.097656 1155.457031 230.953125 C 1175.742188 240.015625 1203.898438 237.355469 1215.65625 216.136719 C 1218.582031 210.855469 1219.339844 205.015625 1219.386719 198.96875 C 1219.484375 184.558594 1209.640625 176.800781 1196.949219 172.878906 Z M 1196.949219 172.875 " fill-opacity="1" fill-rule="nonzero"/><path fill="#ffffff" d="M 849.585938 233.832031 L 849.558594 213.367188 L 798.632812 213.425781 L 798.789062 187.671875 L 843.652344 187.601562 L 843.671875 167.425781 L 798.582031 167.503906 L 798.496094 143.066406 L 849.566406 142.859375 L 849.558594 122.40625 L 775.800781 122.457031 L 775.84375 233.847656 Z M 849.585938 233.832031 " fill-opacity="1" fill-rule="nonzero"/><path fill="#ffffff" d="M 946.359375 196.761719 C 943.808594 202.75 940.304688 207.410156 934.207031 210.902344 C 919.722656 219.183594 900.742188 214.601562 892.808594 199.675781 C 885.507812 185.945312 885.824219 168.878906 893.289062 155.324219 C 898.671875 145.539062 909.488281 141.25 920.203125 141.664062 C 932.449219 141.777344 942.699219 148.601562 946.859375 160.074219 L 970.375 160.042969 C 968.164062 144.59375 958.472656 132.386719 944.648438 125.902344 C 924.738281 116.4375 897.941406 119.007812 881.683594 134.46875 C 870.726562 144.890625 864.9375 159.140625 864.691406 174.265625 C 864.566406 181.476562 864.886719 188.132812 866.648438 195.023438 C 870.824219 211.277344 881.75 224.925781 897.324219 231.375 C 926.71875 243.546875 963.75 230 970.648438 196.777344 Z M 946.359375 196.761719 " fill-opacity="1" fill-rule="nonzero"/><path fill="#ffffff" d="M 1366.925781 233.761719 L 1389.425781 233.742188 L 1389.53125 191.636719 L 1432.460938 191.441406 L 1432.570312 171.15625 L 1389.863281 171.136719 L 1389.824219 143.085938 L 1438.8125 142.808594 L 1438.820312 122.40625 L 1366.945312 122.417969 Z M 1366.925781 233.761719 " fill-opacity="1" fill-rule="nonzero"/><path fill="#ffffff" d="M 1535.71875 122.140625 L 1450.039062 122.476562 L 1449.960938 142.964844 L 1481.363281 142.917969 L 1481.304688 233.871094 L 1503.988281 233.800781 L 1504.183594 143.183594 L 1535.734375 142.722656 Z M 1535.71875 122.140625 " fill-opacity="1" fill-rule="nonzero"/><path fill="#ffffff" d="M 705.679688 191.804688 L 705.675781 217.113281 L 705.777344 233.753906 L 728.476562 233.734375 L 728.554688 143.117188 L 759.472656 142.828125 L 759.480469 122.417969 L 674.332031 122.433594 L 674.300781 142.917969 L 705.726562 142.910156 Z M 705.679688 191.804688 " fill-opacity="1" fill-rule="nonzero"/><path fill="#ffffff" d="M 1119.605469 284.003906 L 1111.027344 283.980469 C 1108.210938 284.234375 1107.441406 286.035156 1107.480469 288.449219 C 1107.609375 296.335938 1107.691406 303.492188 1107.160156 311.84375 L 1088.082031 286.082031 C 1087.1875 284.875 1085.320312 283.933594 1083.957031 283.941406 L 1075.8125 283.972656 C 1074.425781 283.980469 1072.769531 285.570312 1072.78125 287.179688 L 1073.03125 337.195312 C 1073.03125 338.199219 1074.359375 340.09375 1075.367188 340.109375 L 1085.734375 340.210938 C 1086.871094 339.511719 1088.003906 337.992188 1088.023438 336.636719 L 1088.363281 312.6875 L 1106.355469 337.28125 C 1109.40625 341.445312 1112.332031 340.328125 1118.769531 340.285156 C 1121.171875 340.269531 1122.667969 338.816406 1122.667969 336.546875 L 1122.667969 287.183594 C 1122.667969 285.632812 1120.996094 284.003906 1119.605469 284.003906 Z M 1119.605469 284.003906 " fill-opacity="1" fill-rule="nonzero"/><path fill="#ffffff" d="M 1029.46875 282.933594 C 1011.742188 282.03125 998.59375 295.1875 998.863281 312.558594 C 999.089844 327.519531 1009.476562 340.09375 1024.734375 341.25 C 1037.527344 342.210938 1049.203125 336.332031 1054.503906 323.816406 C 1057.429688 316.890625 1057.308594 308.5 1054.976562 301.5 C 1051.238281 290.320312 1040.675781 283.507812 1029.46875 282.933594 Z M 1040.921875 313.511719 C 1040.890625 313.796875 1040.851562 314.074219 1040.800781 314.359375 C 1040.761719 314.585938 1040.722656 314.808594 1040.667969 315.027344 C 1040.605469 315.328125 1040.527344 315.621094 1040.441406 315.917969 C 1040.402344 316.0625 1040.359375 316.203125 1040.3125 316.339844 C 1040.273438 316.457031 1040.234375 316.578125 1040.1875 316.703125 C 1040.035156 317.144531 1039.851562 317.585938 1039.652344 318.007812 C 1039.574219 318.183594 1039.488281 318.351562 1039.398438 318.519531 C 1039.136719 319.027344 1038.847656 319.519531 1038.523438 320 C 1038.390625 320.195312 1038.25 320.375 1038.113281 320.5625 C 1037.96875 320.753906 1037.828125 320.933594 1037.679688 321.109375 C 1036.78125 322.191406 1035.699219 323.167969 1034.453125 323.957031 C 1034.179688 324.132812 1033.894531 324.300781 1033.601562 324.457031 C 1033.121094 324.71875 1032.625 324.949219 1032.097656 325.15625 C 1031.824219 325.269531 1031.539062 325.371094 1031.253906 325.464844 C 1030.957031 325.558594 1030.652344 325.644531 1030.339844 325.722656 C 1030.132812 325.78125 1029.917969 325.828125 1029.703125 325.871094 C 1029.351562 325.941406 1029.003906 325.996094 1028.652344 326.035156 C 1026.777344 326.222656 1024.925781 325.890625 1023.253906 325.214844 C 1022.882812 325.066406 1022.519531 324.90625 1022.167969 324.722656 C 1021.960938 324.621094 1021.761719 324.507812 1021.558594 324.390625 C 1021.410156 324.308594 1021.261719 324.21875 1021.117188 324.125 C 1021.019531 324.0625 1020.921875 324.003906 1020.832031 323.9375 C 1021.074219 324.09375 1021.3125 324.25 1021.558594 324.390625 C 1021.289062 324.230469 1021.015625 324.0625 1020.753906 323.886719 C 1020.734375 323.875 1020.714844 323.859375 1020.695312 323.847656 C 1020.417969 323.660156 1020.144531 323.457031 1019.878906 323.25 C 1020.125 323.453125 1020.386719 323.640625 1020.652344 323.820312 C 1020.523438 323.730469 1020.398438 323.644531 1020.28125 323.554688 L 1020.273438 323.554688 C 1020.136719 323.453125 1020.007812 323.355469 1019.878906 323.25 C 1019.535156 322.972656 1019.203125 322.6875 1018.894531 322.375 C 1018.738281 322.226562 1018.585938 322.070312 1018.4375 321.914062 C 1018.296875 321.757812 1018.160156 321.601562 1018.023438 321.441406 C 1017.746094 321.101562 1017.476562 320.753906 1017.226562 320.394531 C 1017.09375 320.21875 1016.972656 320.039062 1016.855469 319.855469 C 1016.609375 319.488281 1016.382812 319.109375 1016.175781 318.734375 C 1016.070312 318.546875 1015.964844 318.359375 1015.875 318.164062 C 1015.777344 317.976562 1015.679688 317.78125 1015.597656 317.578125 C 1015.589844 317.566406 1015.582031 317.554688 1015.578125 317.539062 C 1015.492188 317.359375 1015.414062 317.175781 1015.34375 316.988281 C 1015.179688 316.59375 1015.039062 316.191406 1014.914062 315.78125 C 1014.851562 315.582031 1014.792969 315.371094 1014.746094 315.164062 C 1014.6875 314.964844 1014.636719 314.757812 1014.605469 314.546875 C 1014.382812 313.492188 1014.296875 312.414062 1014.363281 311.335938 C 1014.375 311.109375 1014.394531 310.875 1014.421875 310.640625 C 1014.480469 310.183594 1014.566406 309.722656 1014.675781 309.261719 C 1014.824219 308.644531 1015.007812 308.046875 1015.214844 307.46875 C 1015.316406 307.183594 1015.425781 306.90625 1015.542969 306.632812 C 1015.773438 306.082031 1016.03125 305.554688 1016.316406 305.0625 C 1016.882812 304.054688 1017.550781 303.152344 1018.316406 302.375 C 1018.542969 302.140625 1018.777344 301.914062 1019.023438 301.707031 C 1019.171875 301.566406 1019.328125 301.429688 1019.488281 301.304688 C 1019.535156 301.265625 1019.582031 301.226562 1019.632812 301.195312 C 1019.761719 301.085938 1019.90625 300.988281 1020.042969 300.882812 C 1020.183594 300.785156 1020.328125 300.683594 1020.476562 300.597656 C 1020.519531 300.558594 1020.566406 300.53125 1020.613281 300.507812 C 1020.734375 300.421875 1020.867188 300.34375 1020.996094 300.273438 C 1021.195312 300.148438 1021.398438 300.039062 1021.605469 299.9375 C 1021.78125 299.84375 1021.960938 299.753906 1022.148438 299.667969 C 1022.246094 299.625 1022.34375 299.578125 1022.441406 299.539062 C 1022.675781 299.441406 1022.910156 299.34375 1023.148438 299.261719 C 1027.605469 297.652344 1032.460938 298.371094 1036.289062 301.628906 C 1037.269531 302.460938 1038.105469 303.414062 1038.789062 304.457031 C 1038.898438 304.628906 1039.007812 304.800781 1039.113281 304.976562 C 1039.117188 304.996094 1039.132812 305.015625 1039.136719 305.03125 C 1039.253906 305.230469 1039.371094 305.433594 1039.476562 305.640625 C 1039.613281 305.898438 1039.742188 306.171875 1039.851562 306.4375 C 1039.917969 306.574219 1039.976562 306.710938 1040.027344 306.851562 C 1040.136719 307.113281 1040.234375 307.378906 1040.320312 307.644531 C 1040.398438 307.878906 1040.460938 308.113281 1040.527344 308.34375 C 1040.570312 308.507812 1040.609375 308.667969 1040.648438 308.839844 C 1040.683594 308.960938 1040.707031 309.089844 1040.726562 309.214844 C 1040.78125 309.429688 1040.8125 309.644531 1040.84375 309.855469 C 1040.875 310.046875 1040.902344 310.238281 1040.921875 310.433594 C 1040.941406 310.621094 1040.960938 310.816406 1040.96875 311.003906 C 1040.980469 311.121094 1040.988281 311.246094 1040.992188 311.367188 C 1041.027344 312.078125 1040.992188 312.796875 1040.921875 313.511719 Z M 1040.921875 313.511719 " fill-opacity="1" fill-rule="nonzero"/><path fill="#ffffff" d="M 752.382812 283.046875 C 743.082031 282.34375 735.210938 285.101562 729.125 291.085938 C 722.921875 297.179688 720.585938 304.90625 720.890625 313.820312 C 721.15625 321.523438 723.785156 328.128906 729.273438 333.488281 C 734.847656 338.933594 741.609375 341.613281 749.644531 341.199219 C 754.28125 340.957031 758.902344 340.691406 763.398438 338.019531 C 769.699219 334.269531 775.046875 328.546875 777.046875 321.402344 C 778.570312 315.957031 778.660156 309.488281 777.324219 303.921875 C 774.515625 292.253906 763.898438 283.921875 752.382812 283.046875 Z M 762.476562 313.859375 C 762.425781 314.199219 762.367188 314.53125 762.300781 314.855469 C 762.277344 314.988281 762.242188 315.125 762.210938 315.261719 C 762.179688 315.40625 762.148438 315.535156 762.109375 315.671875 C 762.074219 315.808594 762.035156 315.945312 761.996094 316.082031 C 761.917969 316.347656 761.835938 316.605469 761.746094 316.867188 C 761.660156 317.117188 761.5625 317.378906 761.457031 317.625 C 761.367188 317.839844 761.269531 318.058594 761.171875 318.273438 C 761.050781 318.546875 760.914062 318.8125 760.769531 319.070312 C 760.425781 319.6875 760.050781 320.273438 759.628906 320.824219 C 759.421875 321.097656 759.199219 321.363281 758.96875 321.617188 C 758.851562 321.746094 758.734375 321.867188 758.609375 321.992188 C 758.382812 322.230469 758.148438 322.453125 757.910156 322.660156 C 757.785156 322.769531 757.664062 322.875 757.539062 322.976562 C 757.410156 323.082031 757.285156 323.179688 757.15625 323.28125 C 757.027344 323.378906 756.898438 323.476562 756.761719 323.570312 C 756.632812 323.660156 756.488281 323.757812 756.351562 323.847656 C 756.214844 323.933594 756.074219 324.023438 755.9375 324.105469 C 755.792969 324.191406 755.644531 324.277344 755.503906 324.355469 C 755.359375 324.429688 755.210938 324.507812 755.0625 324.585938 C 754.910156 324.664062 754.761719 324.738281 754.605469 324.808594 C 754.449219 324.878906 754.300781 324.945312 754.140625 325.015625 C 753.691406 325.203125 753.230469 325.371094 752.75 325.523438 C 752.726562 325.535156 752.707031 325.539062 752.679688 325.539062 C 752.511719 325.59375 752.34375 325.644531 752.171875 325.691406 C 752 325.734375 751.828125 325.78125 751.652344 325.820312 C 746.496094 327.027344 740.960938 323.722656 738.597656 319.726562 C 738.039062 318.785156 737.59375 317.839844 737.242188 316.878906 C 737.164062 316.664062 737.085938 316.445312 737.023438 316.222656 C 736.949219 316.007812 736.890625 315.792969 736.832031 315.574219 C 736.808594 315.488281 736.789062 315.410156 736.769531 315.328125 C 736.769531 315.320312 736.769531 315.308594 736.769531 315.300781 C 736.734375 315.183594 736.710938 315.074219 736.691406 314.964844 C 736.613281 314.632812 736.554688 314.300781 736.507812 313.972656 C 736.484375 313.839844 736.46875 313.707031 736.457031 313.574219 C 736.457031 313.554688 736.457031 313.535156 736.449219 313.515625 C 736.4375 313.394531 736.425781 313.269531 736.417969 313.148438 C 736.398438 312.992188 736.390625 312.835938 736.386719 312.671875 C 736.386719 312.582031 736.386719 312.5 736.386719 312.40625 C 736.386719 312.265625 736.371094 312.128906 736.386719 311.984375 C 736.386719 311.667969 736.398438 311.351562 736.425781 311.039062 C 736.429688 310.863281 736.449219 310.6875 736.476562 310.519531 C 736.515625 310.175781 736.566406 309.832031 736.644531 309.488281 C 736.671875 309.3125 736.710938 309.144531 736.761719 308.96875 C 736.839844 308.625 736.9375 308.28125 737.054688 307.941406 C 737.085938 307.828125 737.125 307.714844 737.171875 307.597656 C 737.308594 307.203125 737.46875 306.808594 737.644531 306.410156 C 737.800781 306.074219 737.960938 305.738281 738.152344 305.398438 C 738.28125 305.164062 738.417969 304.933594 738.558594 304.699219 C 738.574219 304.671875 738.585938 304.648438 738.613281 304.613281 C 738.753906 304.375 738.902344 304.140625 739.066406 303.90625 C 742.511719 298.863281 749.105469 297.238281 754.691406 299.683594 C 759.8125 301.929688 763.445312 307.464844 762.496094 313.859375 Z M 762.476562 313.859375 " fill-opacity="1" fill-rule="nonzero"/><path fill="#ffffff" d="M 1169.292969 306.40625 L 1157.554688 303.101562 C 1156.605469 302.835938 1155.335938 300.824219 1155.605469 299.9375 C 1155.835938 299.175781 1157.097656 297.984375 1157.839844 297.691406 C 1164.433594 295.101562 1164.808594 303.589844 1167.574219 303.816406 C 1171.289062 304.121094 1176.421875 304.289062 1179.738281 303.394531 C 1182.386719 301.96875 1181.308594 297.792969 1180.519531 295.511719 C 1177.53125 286.9375 1169.179688 283.027344 1160.304688 282.953125 C 1152.195312 282.890625 1143.902344 285.964844 1140.800781 294.140625 C 1139.261719 298.183594 1139.46875 304.082031 1140.859375 308.171875 C 1142.617188 313.328125 1147.464844 316.320312 1152.265625 317.726562 L 1164.347656 321.277344 C 1165.035156 321.480469 1166.28125 322.613281 1166.46875 323.261719 C 1166.664062 323.90625 1165.617188 325.230469 1164.957031 325.710938 C 1161.863281 327.949219 1156.859375 326.898438 1154.855469 323.78125 C 1151.980469 319.316406 1154.339844 318.707031 1139.753906 319.511719 C 1138.253906 319.597656 1137.769531 322.835938 1137.925781 324.101562 C 1139.289062 335.292969 1149.027344 341.394531 1159.6875 341.367188 C 1168.648438 341.347656 1176.761719 338.65625 1180.855469 329.375 C 1182.484375 325.691406 1182.546875 320.117188 1181.109375 316.222656 C 1179.238281 311.167969 1174.25 307.808594 1169.292969 306.40625 Z M 1169.292969 306.40625 " fill-opacity="1" fill-rule="nonzero"/><path fill="#ffffff" d="M 696.304688 307.519531 L 683.25 303.738281 C 682.027344 303.386719 679.875 301.585938 680.277344 300.320312 C 680.839844 298.558594 683.410156 297.535156 684.992188 297.585938 C 690.394531 297.753906 689.699219 304.191406 692.519531 304.21875 L 703.609375 304.316406 C 706.171875 304.335938 708.796875 296.679688 700.722656 288.695312 C 696.386719 284.414062 690.800781 283.460938 684.644531 283.472656 C 676.855469 283.488281 669.023438 286.417969 665.726562 294.101562 C 663.988281 298.164062 664.164062 303.6875 665.496094 307.921875 C 667.085938 313.015625 671.53125 316.484375 676.5 317.9375 L 689.023438 321.609375 C 689.652344 321.789062 690.777344 322.777344 691.09375 323.300781 C 691.40625 323.835938 690.660156 325.417969 690.066406 325.820312 C 687.03125 327.894531 681.613281 327.683594 679.699219 323.925781 C 679.0625 322.6875 677.71875 319.851562 676.382812 319.835938 L 666.488281 319.726562 C 663.828125 319.695312 662.605469 322.398438 662.984375 324.78125 C 664.78125 336.207031 675.035156 341.894531 686 341.609375 C 696.199219 341.339844 705.589844 336.285156 707.003906 325.082031 C 708.003906 317.210938 703.832031 309.695312 696.304688 307.519531 Z M 696.304688 307.519531 " fill-opacity="1" fill-rule="nonzero"/><path fill="#ffffff" d="M 1377.214844 316.988281 L 1367.410156 317.113281 L 1363.445312 322.621094 C 1360.039062 327.359375 1352.65625 327.324219 1348.320312 323.621094 C 1342.371094 318.539062 1341.96875 309.285156 1346.601562 302.777344 C 1350.304688 297.585938 1358.871094 296.929688 1363.347656 301.558594 C 1364.808594 303.078125 1365.851562 305.101562 1367.171875 306.90625 C 1371.34375 306.917969 1375.027344 306.949219 1379.234375 306.664062 C 1384.074219 306.332031 1379.65625 283.980469 1357.015625 283.148438 C 1339.941406 282.519531 1326.804688 295.40625 1327.609375 312.5625 C 1327.964844 320.21875 1329.9375 327.3125 1335.160156 333.027344 C 1340.496094 338.875 1347.160156 341.308594 1355.011719 341.355469 C 1364.140625 341.40625 1372.140625 338.121094 1377.496094 330.433594 C 1379.53125 327.496094 1383.359375 321.011719 1380.296875 318.035156 C 1379.757812 317.507812 1378.027344 316.976562 1377.214844 316.988281 Z M 1377.214844 316.988281 " fill-opacity="1" fill-rule="nonzero"/><path fill="#ffffff" d="M 887.1875 283.953125 L 878.933594 283.972656 C 876.765625 283.980469 875.871094 286.128906 875.871094 287.808594 L 875.851562 319.070312 C 875.84375 321.179688 874.367188 323.875 873.0625 324.828125 C 871.445312 326.007812 869.136719 326.378906 867.144531 326.203125 C 862.816406 325.839844 860.5625 322.757812 860.5625 318.605469 L 860.539062 287.808594 C 860.539062 285.914062 859.371094 284.003906 857.320312 283.984375 L 848.761719 283.921875 C 847.664062 283.910156 845.316406 285.386719 845.320312 286.628906 L 845.449219 321.925781 C 845.503906 334.75 855.988281 341.535156 867.585938 341.53125 C 880.648438 341.515625 890.738281 333.78125 890.757812 320.195312 L 890.800781 287.816406 C 890.800781 285.789062 889.230469 283.945312 887.1875 283.953125 Z M 887.1875 283.953125 " fill-opacity="1" fill-rule="nonzero"/><path fill="#ffffff" d="M 948.871094 284.023438 L 911.105469 283.945312 C 909.640625 283.945312 907.089844 285.101562 907.070312 286.503906 L 906.960938 295.023438 C 906.925781 297.367188 908.898438 298.734375 911.078125 298.75 L 922.246094 298.828125 L 922.273438 337.226562 C 922.273438 338.371094 924.285156 340.230469 925.367188 340.21875 L 935.457031 340.054688 C 936.378906 340.042969 937.425781 337.5 937.429688 336.449219 L 937.507812 298.921875 L 948.261719 298.800781 C 950.046875 298.78125 952.042969 297.691406 952.070312 295.78125 L 952.167969 287.0625 C 952.179688 285.480469 950.46875 284.03125 948.871094 284.023438 Z M 948.871094 284.023438 " fill-opacity="1" fill-rule="nonzero"/><path fill="#ffffff" d="M 829.417969 325.890625 L 809.164062 325.8125 L 809.21875 287.140625 C 809.21875 286.035156 807.796875 284.148438 806.847656 284.128906 L 797.523438 283.921875 C 795.304688 283.875 793.84375 285.699219 793.84375 287.835938 L 793.882812 336.550781 C 793.882812 338.6875 795.449219 340.210938 797.5625 340.210938 L 828.152344 340.210938 C 830.363281 340.210938 832.011719 338.84375 832.027344 336.589844 L 832.070312 329.207031 C 832.070312 328.105469 830.667969 325.898438 829.417969 325.890625 Z M 829.417969 325.890625 " fill-opacity="1" fill-rule="nonzero"/><path fill="#ffffff" d="M 1316.117188 325.851562 L 1295.746094 325.851562 L 1295.863281 289.097656 C 1295.871094 287.433594 1295.488281 284.128906 1293.398438 284.089844 L 1284.210938 283.941406 C 1281.996094 283.902344 1280.726562 285.847656 1280.726562 287.847656 L 1280.835938 336.496094 C 1280.835938 338.882812 1282.53125 340.289062 1284.898438 340.285156 L 1314.8125 340.179688 C 1317.097656 340.171875 1318.582031 338.894531 1318.589844 336.585938 L 1318.613281 328.71875 C 1318.621094 327.785156 1317.019531 325.851562 1316.117188 325.851562 Z M 1316.117188 325.851562 " fill-opacity="1" fill-rule="nonzero"/><path fill="#ffffff" d="M 1262.964844 325.867188 L 1243.425781 325.886719 L 1243.371094 287.847656 C 1243.371094 285.367188 1241.960938 283.921875 1239.574219 283.929688 L 1231.535156 283.929688 C 1230.085938 283.933594 1228.367188 285.445312 1228.367188 287.21875 L 1228.367188 335.921875 C 1228.367188 337.777344 1229.613281 340.21875 1231.683594 340.210938 L 1263.542969 340.148438 C 1264.644531 340.140625 1266.164062 338.335938 1266.164062 337.390625 L 1266.152344 328.1875 C 1266.152344 326.917969 1264.035156 325.867188 1262.964844 325.867188 Z M 1262.964844 325.867188 " fill-opacity="1" fill-rule="nonzero"/><path fill="#ffffff" d="M 979.53125 283.945312 L 971.316406 284.0625 C 970 284.082031 968.414062 285.347656 967.988281 286.679688 L 967.949219 336.539062 C 967.949219 338.15625 969.234375 340.160156 970.71875 340.171875 L 979.925781 340.230469 C 980.996094 340.246094 982.800781 338.296875 982.800781 337.097656 L 982.800781 286.1875 C 982.101562 285.238281 980.445312 283.933594 979.53125 283.945312 Z M 979.53125 283.945312 " fill-opacity="1" fill-rule="nonzero"/><path fill="#0a5781" d="M 438.460938 230.136719 C 432.148438 274.523438 411.519531 315.40625 379.261719 346.585938 C 362.691406 362.597656 343.660156 375.214844 323.230469 385.84375 C 306.230469 394.6875 289.023438 401.644531 271.566406 409.339844 L 258.875 414.933594 C 254.644531 416.800781 250.648438 418.125 246.390625 420.039062 C 204.386719 438.980469 158.234375 451.554688 111.792969 445.441406 C 80.996094 441.386719 52.640625 427.890625 31.269531 405.398438 C 23.859375 397.59375 18.265625 388.742188 13.511719 379.160156 C 0.644531 353.230469 -2.101562 326.230469 2.082031 297.695312 C 4.335938 282.351562 8 267.953125 13.632812 253.4375 C 20.578125 235.515625 28.578125 218.453125 39.472656 202.640625 L 47.3125 191.28125 C 31.828125 233.96875 21.019531 289.4375 38.070312 332.953125 C 45.285156 351.378906 57.226562 367.335938 73 379.191406 C 107.671875 405.257812 150.417969 410.597656 192.5 404.6875 C 211.164062 402.0625 228.902344 397.613281 246.851562 392.027344 C 249.441406 391.222656 252.144531 391.292969 254.164062 389.09375 C 244.0625 389.691406 235.054688 391.144531 225.230469 390.890625 C 204.003906 390.34375 183.65625 386.476562 164.273438 377.933594 C 148.304688 370.890625 133.964844 361.675781 120.914062 350.011719 C 102.507812 333.542969 87.230469 314.0625 75.882812 292.105469 C 53.734375 249.265625 48.199219 199.683594 61.488281 153.164062 C 70.378906 122.023438 87.394531 93.382812 110.390625 70.675781 C 156.746094 24.921875 223.550781 5.390625 287.296875 18.53125 C 312.324219 23.691406 335.484375 34.164062 356.773438 47.992188 L 366.234375 54.597656 L 314.441406 106.558594 C 294.582031 91.871094 271.484375 84.941406 247.300781 84.648438 C 222.589844 84.347656 199.175781 91.824219 179.222656 106.242188 C 161.691406 118.511719 148.453125 135.105469 139.765625 154.636719 C 122.042969 194.453125 126.125 241.082031 151.367188 276.75 C 192.527344 334.90625 277.5625 342.042969 328.628906 292.621094 C 342.316406 279.378906 353.054688 263.585938 359.082031 244.910156 L 249.464844 244.773438 C 247.304688 244.773438 246.332031 242.957031 246.339844 241.191406 L 246.390625 179.066406 C 246.390625 178.144531 248.226562 177.132812 249.394531 177.132812 L 436.003906 177.148438 C 437.851562 177.148438 438.910156 178.742188 439.058594 180.324219 C 440.628906 197.035156 440.84375 213.386719 438.460938 230.136719 Z M 438.460938 230.136719 " fill-opacity="1" fill-rule="nonzero"/><path fill="#e08e2b" d="M 483.519531 0 L 483.496094 145.351562 L 469.878906 132.140625 L 434.101562 96.445312 L 417.417969 113.230469 L 385.835938 145.070312 L 303.699219 145 L 361.703125 83.148438 L 391.230469 51.644531 L 334.605469 0.0898438 Z M 483.519531 0 " fill-opacity="1" fill-rule="nonzero"/><path fill="#e08d2d" d="M 47.449219 193.0625 C -30.035156 389.769531 162.242188 472.171875 345.652344 340.59375 C 341.21875 343.773438 337.417969 353.921875 333.964844 358.511719 C 329.011719 365.089844 323.554688 371.273438 317.695312 377.0625 C 306.394531 388.230469 293.589844 397.820312 279.957031 405.953125 C 217.921875 442.964844 116.003906 466.765625 51.050781 424.664062 C 6.925781 396.0625 -6.292969 337.835938 3.355469 288.808594 C 10.183594 254.109375 26.214844 221.191406 47.449219 193.0625 Z M 47.449219 193.0625 " fill-opacity="1" fill-rule="nonzero"/></svg>